<svg width="512" height="512" viewBox="0 0 512 512" fill="none" xmlns="http://www.w3.org/2000/svg">
<path d="M60.5312 48.2852V164.347H83.8425V347.653H60.5312V463.715H242.327V366.727L300.605 463.715H451.48V347.653H428.169V164.347H451.48V48.2852H269.685V149.152L209.141 48.2852" fill="#003965"/>
<path d="M437.072 148.992V61.7031H284.091V148.992H307.403V239.029L200.883 61.7031H74.9375V148.992H98.2487V361.072H74.9375V448.36H227.918V361.072H204.606V278.955C205.416 278.955 206.063 279.117 206.873 278.955L308.698 448.36H437.072V361.072H413.76V148.992H437.072Z" fill="#FEFEFE"/>
<path d="M286.197 286.228C287.654 287.682 286.845 288.491 286.197 289.299C285.388 290.107 276.97 295.441 271.466 293.825C267.742 292.37 267.742 285.419 261.591 282.348C256.896 280.085 251.554 283.964 251.554 283.964C259.972 283.964 262.238 295.441 262.238 295.441C250.097 285.419 238.441 292.37 236.984 298.513C247.669 291.562 256.896 300.776 256.896 300.776C253.173 301.584 244.593 307.726 250.744 317.587C252.363 306.11 263.857 303.847 263.857 303.847C263.048 309.181 267.742 320.012 276.97 317.587C270.009 313.061 271.466 308.373 271.466 306.11C271.466 304.655 273.084 303.039 275.351 303.039C288.463 301.584 288.463 311.444 288.463 311.444C292.187 311.444 301.414 298.513 301.414 291.562C305.299 296.896 314.527 299.967 321.488 295.441C312.26 293.825 309.184 285.419 308.375 283.964C307.566 282.348 306.109 271.679 301.414 267.8C295.262 261.657 286.845 266.183 281.502 270.871C280.045 272.326 275.351 280.085 280.693 282.348C283.769 284.611 284.578 285.419 286.197 286.228Z" fill="#003965"/>
<path d="M145.517 260.203C131.757 260.203 117.188 233.369 115.569 230.945C123.339 230.298 122.53 226.419 121.72 224.156C119.454 214.942 101.809 223.347 100.352 224.802C100.999 215.588 110.227 212.517 116.378 213.325C115.569 200.394 103.427 199.585 103.427 199.585C114.112 191.826 121.073 201.848 123.339 209.446C134.023 201.848 124.149 191.18 121.72 189.563C121.72 189.563 130.3 188.755 134.024 197.322C136.452 205.728 132.567 211.062 132.567 211.062C132.567 211.062 135.642 211.062 137.099 209.446C143.251 205.728 142.441 199.585 142.441 198.777C142.441 198.777 147.136 201.848 146.327 206.374C146.327 210.254 142.441 212.517 140.984 214.942C139.528 217.205 135.642 221.084 140.175 234.016C142.441 240.158 145.517 245.493 147.945 246.301C147.136 249.372 144.06 252.444 145.517 260.203Z" fill="#003965"/>
<path d="M115.567 280.086C107.149 280.894 92.5796 283.965 100.35 299.16C100.35 288.491 114.92 287.683 117.186 288.491C110.225 299.968 117.995 310.799 124.794 310.799C118.643 305.303 124.147 298.513 124.794 296.089C125.604 294.634 127.87 293.179 130.298 293.826C137.907 296.089 132.565 302.231 132.565 302.231C149.401 309.99 157.171 303.04 160.247 299.16C160.247 299.16 165.589 304.656 160.247 307.727C163.323 309.182 179.349 309.99 184.691 302.231C187.12 308.374 205.413 308.374 209.298 305.303C209.298 305.303 205.413 303.04 205.413 299.968C205.413 295.442 210.917 291.563 217.068 288.491C224.677 285.42 236.98 283.965 249.283 277.823C272.271 266.993 300.762 246.302 309.989 259.395C314.522 265.538 313.713 272.327 318.407 276.206C322.94 280.894 330.711 278.469 335.243 277.823C346.737 276.206 362.925 274.752 372.153 273.943C382.028 273.135 384.456 280.894 385.104 281.541C385.913 283.965 385.104 285.42 383.647 284.612C380.571 284.612 374.419 283.157 370.534 284.612C366.001 287.683 366.811 294.634 366.811 294.634C370.534 287.683 382.028 288.491 386.722 289.3C382.837 292.371 376.038 305.303 385.913 310.799C383.647 300.776 392.874 293.826 392.874 293.826C393.683 296.897 399.835 302.231 412.786 301.585C399.026 296.897 401.292 290.108 401.292 290.108C405.987 292.371 415.861 290.754 420.556 280.086C404.368 290.108 400.482 280.894 399.835 279.278C396.759 273.943 404.368 273.135 404.368 273.135C402.911 270.064 380.571 256.324 391.255 251.636C387.532 249.373 378.304 250.181 370.534 256.324C370.534 254.707 370.534 249.373 368.268 247.11C368.268 247.11 355.155 256.324 344.471 254.707C333.786 253.253 338.319 237.896 338.319 237.896C338.319 237.896 365.192 240.968 375.229 236.28C385.104 231.754 385.104 224.803 393.683 220.277C400.482 216.397 408.253 219.469 408.253 219.469C406.634 215.589 393.683 210.255 383.647 221.085C383.647 221.085 382.837 201.849 359.04 204.112C344.471 205.729 332.977 211.871 318.407 214.134C303.838 217.206 289.268 219.469 280.041 219.469C270.814 219.469 256.892 217.206 256.244 206.375C255.435 200.394 259.967 197.97 264.662 197.97C271.461 197.97 281.498 201.849 289.916 204.92C295.258 207.184 301.41 207.184 304.485 207.184C313.065 207.184 323.75 203.466 329.092 201.041C334.434 198.778 338.319 197.97 349.165 198.778C344.471 194.252 322.131 184.23 306.914 185.038C292.182 185.685 291.535 192.635 276.965 191.827C262.234 191.181 250.092 193.444 249.283 204.112C248.474 214.943 258.51 226.419 281.498 224.803C291.535 224.803 327.635 218.66 334.434 216.397C343.661 213.326 379.761 206.375 372.962 224.156C371.343 227.874 367.458 231.754 356.774 231.754C346.09 231.754 332.977 228.682 329.901 227.874C326.016 227.228 316.789 226.419 307.561 227.228C299.143 228.682 240.056 237.088 230.019 237.896C230.019 241.776 227.753 252.444 237.789 259.395C233.095 261.658 224.677 266.184 216.259 262.466C215.449 265.538 219.335 270.064 223.22 274.752C220.144 275.398 207.031 281.541 200.88 277.823C198.613 282.349 190.195 294.634 171.741 290.754C173.198 290.108 172.388 283.965 167.856 282.349C163.323 283.157 162.513 285.42 144.059 283.157C138.716 282.349 134.022 280.894 132.565 277.015C130.946 273.135 133.374 267.801 131.755 264.729C129.489 258.587 120.262 259.395 120.262 259.395C128.68 265.538 123.338 274.752 123.338 274.752C115.567 266.993 103.426 259.395 99.5407 273.135C109.577 268.609 115.567 280.086 115.567 280.086Z" fill="#003965"/>
<path fill-rule="evenodd" clip-rule="evenodd" d="M233.096 229.49C230.02 236.279 223.869 234.016 220.793 232.562C220.145 237.896 220.145 251.636 223.869 257.132C220.793 258.587 214.641 257.132 210.109 253.252C208.49 256.323 207.033 263.921 210.918 271.68C207.842 272.326 202.338 271.68 197.805 266.992C194.73 273.943 188.578 284.611 176.275 283.157C178.541 272.326 165.591 267.8 159.439 279.277L157.173 274.751C153.287 269.255 151.021 255.515 157.82 244.038C155.554 243.23 147.136 238.704 147.945 233.37C151.021 234.016 158.63 234.016 162.515 230.299C155.554 230.299 151.669 222.539 151.669 219.468C156.363 221.085 164.781 222.54 170.123 214.942C168.666 216.397 158.63 209.446 161.705 203.465C167.857 206.375 186.312 195.706 177.894 186.492C185.502 185.038 192.463 188.109 193.92 196.515C198.615 189.564 205.414 190.372 208.49 190.372C207.842 192.635 206.223 198.778 210.109 199.586C213.184 200.394 217.717 198.778 217.717 193.443C220.793 194.898 223.869 205.728 220.793 208.8C220.793 208.8 231.639 201.849 236.172 211.063C226.945 211.063 227.754 228.682 233.096 229.49ZM180.97 220.276C187.121 226.419 192.463 222.539 191.654 219.468C190.844 218.66 187.769 218.013 186.312 216.397C184.045 214.134 184.045 212.517 182.427 211.063C181.617 210.254 180.16 211.871 179.351 212.517C177.084 214.942 178.541 218.013 180.97 220.276ZM200.881 246.301C198.615 247.11 196.996 248.564 193.273 246.301C189.387 244.038 188.578 241.775 189.387 240.967C190.197 239.351 192.463 240.159 194.73 240.159C196.996 240.967 199.424 239.351 199.424 237.896C199.424 236.279 198.615 234.016 196.996 234.016C199.424 238.704 191.654 235.633 190.844 234.825C189.387 234.016 182.426 229.49 187.769 228.682C187.121 227.874 184.693 227.874 183.236 229.49C182.427 230.945 182.427 233.37 184.045 234.825C184.693 236.279 187.121 237.896 186.312 239.351C185.502 240.159 184.045 241.775 180.16 239.351C175.466 237.088 175.465 234.825 174.818 233.37C173.199 234.016 171.742 238.704 176.275 241.775C172.39 251.636 180.16 254.707 180.16 254.707C180.16 254.707 187.121 259.395 193.273 250.181C198.615 252.444 200.881 247.918 200.881 246.301ZM213.184 227.874C210.918 227.874 209.299 228.682 206.223 227.874C203.957 227.227 201.691 225.611 200.881 224.803C198.615 225.611 198.615 231.753 206.223 233.37C210.109 234.016 213.184 232.562 213.994 230.299C213.994 228.682 213.994 227.227 213.184 227.874Z" fill="#003965"/>
<path d="M217.062 319.688V348.784H234.385L217.062 319.688Z" fill="#C72032"/>
<path d="M275.18 161.277H294.93V187.787L291.854 189.08L275.18 161.277Z" fill="#C72032"/>
<path fill-rule="evenodd" clip-rule="evenodd" d="M463.782 476H293.642L254.628 411.342V476H48.2266V335.206H71.3759V176.632H48.2266V36H216.1L257.38 104.538V36H463.782V176.632H440.633V335.206H463.782V476ZM60.5297 48.2851V164.347H83.841V347.653H60.5297V463.715H242.325V366.889L300.603 463.715H451.479V347.653H428.168V164.347H451.479V48.2851H269.684V149.152L209.139 48.2851H60.5297Z" fill="#C72032"/>
</svg>
